<svg width="160" height="60" viewBox="0 0 160 60" fill="none" xmlns="http://www.w3.org/2000/svg">
<path d="M0 26.1818C0 17.0173 0 12.4351 1.78353 8.9347C3.35237 5.85569 5.85568 3.35237 8.9347 1.78353C12.4351 0 17.0173 0 26.1818 0H33.8182C42.9827 0 47.5649 0 51.0653 1.78353C54.1443 3.35237 56.6476 5.85569 58.2165 8.9347C60 12.4351 60 17.0173 60 26.1818V33.8182C60 42.9827 60 47.5649 58.2165 51.0653C56.6476 54.1443 54.1443 56.6476 51.0653 58.2165C47.5649 60 42.9827 60 33.8182 60H26.1818C17.0173 60 12.4351 60 8.9347 58.2165C5.85568 56.6476 3.35237 54.1443 1.78353 51.0653C0 47.5649 0 42.9827 0 33.8182V26.1818Z" fill="#D2E3D6"/>
<path d="M26.1818 0C17.0173 0 12.4351 0 8.9347 1.78353C5.85568 3.35237 3.35237 5.85569 1.78353 8.9347C0 12.4351 0 17.0173 0 26.1818V33.8182C0 42.9827 0 47.5649 1.78353 51.0653C3.35237 54.1443 5.85568 56.6476 8.9347 58.2165C12.4351 60 17.0173 60 26.1818 60H33.8182C42.9827 60 47.5649 60 51.0653 58.2165C54.1443 56.6476 56.6476 54.1443 58.2165 51.0653C60 47.5649 60 42.9827 60 33.8182V26.1818C60 23.8403 60 21.798 59.9702 19.9963C59.957 19.1962 59.9504 18.7962 59.848 18.389C59.7599 18.0385 59.6058 17.6737 59.416 17.3662C59.1954 17.0089 58.9 16.7119 58.3091 16.118L43.9786 1.71457C43.3491 1.08187 43.0343 0.765501 42.6666 0.539237C42.3405 0.338632 41.9848 0.190773 41.6127 0.101121C41.1929 0 40.7466 0 39.8541 0H26.1818Z" fill="#2EC86B"/>
<mask id="mask0" mask-type="alpha" maskUnits="userSpaceOnUse" x="41" y="0" width="20" height="19">
<path d="M41.8184 0H43.6365C52.6739 0 60.0002 7.32625 60.0002 16.3636V18.1818H41.8184V0Z" fill="white"/>
</mask>
<g mask="url(#mask0)">
<path opacity="0.5" d="M41.8184 -7.27251C41.8184 -10.6501 41.8184 -12.3389 42.005 -13.7567C43.294 -23.5473 50.9981 -31.2514 60.7887 -32.5404C62.2065 -32.7271 63.8953 -32.7271 67.2729 -32.7271C70.6505 -32.7271 72.3393 -32.7271 73.7571 -32.5404C83.5476 -31.2514 91.2518 -23.5473 92.5408 -13.7567C92.7274 -12.3389 92.7274 -10.6501 92.7274 -7.27251C92.7274 -3.89491 92.7274 -2.20611 92.5408 -0.788303C91.2518 9.00225 83.5476 16.7064 73.7571 17.9954C72.3393 18.182 70.6505 18.182 67.2729 18.182H62.182C56.7674 18.182 54.06 18.182 51.869 17.4701C47.4408 16.0313 43.9691 12.5596 42.5303 8.13137C41.8184 5.94035 41.8184 3.23304 41.8184 -2.1816V-7.27251Z" fill="white"/>
</g>
<path d="M14.8977 26.1488C12.7588 26.1488 11.0463 27.8225 11.0463 29.8959V43.0773C11.0463 45.1447 12.7665 46.8244 14.8977 46.8244C17.0364 46.8244 18.749 45.1505 18.749 43.0773V29.8959C18.749 27.8285 17.0289 26.1488 14.8977 26.1488ZM36.1815 13.1758C29.132 13.1758 23.4112 18.8223 23.4112 25.7731V43.0889C23.4112 45.1502 25.106 46.8244 27.2002 46.8244C29.2941 46.8244 30.9892 45.15 30.9892 43.0889V25.7731C30.9892 22.9445 33.3208 20.6468 36.1815 20.6468C39.0392 20.6468 41.3738 22.9478 41.3738 25.7731V43.0889C41.3738 45.1502 43.0686 46.8244 45.1628 46.8244C47.2567 46.8244 48.9517 45.15 48.9517 43.0889V25.7731C48.9517 18.826 43.2283 13.1758 36.1815 13.1758ZM14.8977 13.1758C12.1432 13.1758 9.91016 15.4088 9.91016 18.1633C9.91016 20.9179 12.1432 23.1509 14.8977 23.1509C17.6522 23.1509 19.8852 20.9179 19.8852 18.1633C19.8852 15.4088 17.6522 13.1758 14.8977 13.1758Z" fill="white"/>
<path d="M90.9742 13.1758C93.0102 13.1758 94.6687 14.7583 94.7593 16.7404L94.7632 16.9113V43.0889C94.7632 45.15 93.0682 46.8244 90.9742 46.8244C89.7482 46.8244 88.6591 46.2506 87.9668 45.3613C86.184 46.2954 84.1507 46.8244 81.9929 46.8244C75.032 46.8244 69.3625 41.3112 69.2252 34.4806L69.2227 34.2271V33.1275C69.2227 33.0301 69.2264 32.9335 69.2339 32.8379L69.2255 32.6942L69.2227 32.5484V25.7731C69.2227 18.8223 74.9435 13.1758 81.9929 13.1758L82.0562 13.1766L82.0563 13.1758H90.9742ZM81.9929 20.6468C79.1945 20.6468 76.9022 22.8457 76.8039 25.5894L76.8006 25.7731V32.5484C76.8006 32.6461 76.7968 32.7429 76.7893 32.8388L76.7978 32.9821L76.8006 33.1275V34.2271C76.8006 37.0524 79.1352 39.3534 81.9929 39.3534C84.7914 39.3534 87.0836 37.1545 87.1819 34.4108L87.1852 34.2271L87.1845 27.4898L87.1865 27.4902V22.2694C87.1865 21.3738 86.4605 20.6478 85.5649 20.6478H82.4246C82.3561 20.6478 82.2879 20.6493 82.22 20.6521C82.1453 20.6485 82.0693 20.6468 81.9929 20.6468Z" fill="#2EC86B"/>
<path d="M103.186 13.1758C101.15 13.1758 99.4914 14.7583 99.4009 16.7405L99.397 16.9113V52.8186C99.397 54.8798 101.092 56.5542 103.186 56.5542C105.222 56.5542 106.88 54.9717 106.971 52.9895L106.975 52.8186L106.976 46.8236L112.104 46.8244H112.167C119.128 46.8244 124.798 41.3112 124.935 34.4807L124.938 34.2271V33.1275C124.938 33.0301 124.934 32.9335 124.926 32.8379L124.935 32.6942L124.938 32.5484V25.7731C124.938 18.8223 119.217 13.1758 112.167 13.1758L112.104 13.1766L112.104 13.1758H103.186ZM112.167 20.6468C114.966 20.6468 117.258 22.8457 117.356 25.5894L117.36 25.7731V32.5484C117.36 32.6461 117.363 32.7429 117.371 32.8388L117.362 32.9821L117.36 33.1275V34.2271C117.36 37.0524 115.025 39.3534 112.167 39.3534C112.095 39.3534 112.022 39.3519 111.95 39.349C111.91 39.3501 111.869 39.3506 111.829 39.3506H108.595C107.7 39.3506 106.974 38.6246 106.974 37.729V32.5082L106.976 32.5079V27.4898L106.974 27.4902V22.2694C106.974 21.3739 107.7 20.6478 108.595 20.6478H111.736C111.804 20.6478 111.872 20.6493 111.94 20.6521C112.015 20.6485 112.091 20.6468 112.167 20.6468Z" fill="#2EC86B"/>
<path d="M133.358 13.1758C131.322 13.1758 129.663 14.7583 129.573 16.7405L129.569 16.9113V52.8186C129.569 54.8798 131.264 56.5542 133.358 56.5542C135.394 56.5542 137.052 54.9717 137.143 52.9895L137.147 52.8186L137.147 46.8236L142.276 46.8244H142.339C149.3 46.8244 154.97 41.3112 155.107 34.4807L155.109 34.2271V33.1275C155.109 33.0301 155.106 32.9335 155.098 32.8379L155.107 32.6942L155.109 32.5484V25.7731C155.109 18.8223 149.389 13.1758 142.339 13.1758L142.276 13.1766L142.276 13.1758H133.358ZM142.339 20.6468C145.138 20.6468 147.43 22.8457 147.528 25.5894L147.531 25.7731V32.5484C147.531 32.6461 147.535 32.7429 147.543 32.8388L147.534 32.9821L147.531 33.1275V34.2271C147.531 37.0524 145.197 39.3534 142.339 39.3534C142.266 39.3534 142.194 39.3519 142.122 39.349C142.082 39.3501 142.041 39.3506 142 39.3506H138.767C137.872 39.3506 137.146 38.6246 137.146 37.729V32.5082L137.147 32.5079V27.4898L137.146 27.4902V22.2694C137.146 21.3739 137.872 20.6478 138.767 20.6478H141.907C141.976 20.6478 142.044 20.6493 142.112 20.6521C142.187 20.6485 142.263 20.6468 142.339 20.6468Z" fill="#2EC86B"/>
</svg>
