<svg viewBox="0 0 30 26" xmlns="http://www.w3.org/2000/svg">
<path fill-rule="evenodd" clip-rule="evenodd" d="M0 12.8366C0 11.5434 1.0483 10.4951 2.34145 10.4951H23.7956C25.0888 10.4951 26.1371 11.5434 26.1371 12.8366C26.1371 14.1297 25.0888 15.178 23.7956 15.178H2.34145C1.0483 15.178 0 14.1297 0 12.8366Z" stroke="none"/>
<path fill-rule="evenodd" clip-rule="evenodd" d="M16.0246 1.50554C16.9596 0.61216 18.4417 0.645845 19.3351 1.58078L28.7009 11.3822C29.5657 12.2872 29.5657 13.7124 28.7009 14.6174L19.3351 24.4188C18.4417 25.3537 16.9596 25.3874 16.0246 24.494C15.0897 23.6007 15.056 22.1185 15.9494 21.1836L23.7695 12.9998L15.9494 4.81599C15.056 3.88106 15.0897 2.39892 16.0246 1.50554Z" stroke="none"/>
</svg>
