<svg viewBox="0 0 50 50" xmlns="http://www.w3.org/2000/svg">
<path fill-rule="evenodd" clip-rule="evenodd" d="M25 50C38.8071 50 50 38.8071 50 25C50 11.1929 38.8071 0 25 0C11.1929 0 0 11.1929 0 25C0 38.8071 11.1929 50 25 50ZM35.5699 29.1245C35.5699 35.6733 31.4913 39.7135 24.9617 39.7135C18.0683 39.7135 14.028 35.5009 14.028 27.4012C14.028 15.5484 18.4896 11.1443 25.8042 10.9911C28.0446 10.9337 29.3275 10.8188 30.2275 10.723C30.4182 10.708 30.5918 10.6929 30.7535 10.6789C31.2087 10.6394 31.5693 10.6081 31.9508 10.6081C33.2529 10.6081 34.7082 11.0677 34.7082 12.9825C34.7082 14.4761 33.9805 15.3569 31.8934 15.7399C31.1657 15.8931 30.2275 15.9888 26.4744 16.0846C21.7065 16.2186 19.7342 18.4781 19.1215 23.4184H19.2747C20.5002 20.9291 22.7405 19.3972 26.2446 19.3972C31.8742 19.3972 35.5699 23.1694 35.5699 29.1245ZM20.9789 29.3543C20.9789 32.6861 22.3958 34.5435 24.8085 34.5435C27.1829 34.5435 28.619 32.6861 28.619 29.3543C28.619 26.1374 27.1638 24.2226 24.8085 24.2226C22.415 24.2226 20.9789 26.1374 20.9789 29.3543Z" fill="url(#paint0_linear)"/>
<defs>
<linearGradient id="paint0_linear" x1="25" y1="7.45058e-07" x2="50" y2="50" gradientUnits="userSpaceOnUse">
<stop stop-color="white"/>
<stop offset="1" stop-color="white" stop-opacity="0.5"/>
</linearGradient>
</defs>
</svg>
