<svg viewBox="0 0 64 64" xmlns="http://www.w3.org/2000/svg">
<path fill-rule="evenodd" clip-rule="evenodd" d="M54.3598 57.5361C56.1151 57.5361 57.5361 56.1148 57.5361 54.3598V9.64041C57.5361 7.88505 56.1148 6.46408 54.3598 6.46408H9.64044C7.88509 6.46408 6.46412 7.88535 6.46412 9.64041V54.3598C6.46412 56.1151 7.88538 57.5361 9.64044 57.5361H32.0001V38.3841H28.8066C27.0437 38.3841 25.6146 36.955 25.6146 35.1921C25.6146 33.4292 27.0437 32.0001 28.8066 32.0001H32.0001C32.0001 25.9455 32.6837 22.1295 35.5237 18.951C38.3318 15.808 41.6134 14.4441 44.7681 14.4441C46.531 14.4441 47.9601 15.8732 47.9601 17.6361C47.9601 19.399 46.531 20.8281 44.7681 20.8281C43.3728 20.8281 41.8373 21.4663 40.2843 23.2045C38.8708 24.7865 38.3841 27.5033 38.3841 32.0001H44.7681C46.531 32.0001 47.9601 33.4292 47.9601 35.1921C47.9601 36.955 46.531 38.3841 44.7681 38.3841H38.3841V57.5361H54.3598ZM0.0800781 54.3598V9.6404C0.0800781 4.35986 4.35896 0.0800781 9.6404 0.0800781H54.3598C59.6403 0.0800781 63.9201 4.35896 63.9201 9.6404V54.3598C63.9201 59.6403 59.6412 63.9201 54.3598 63.9201H9.6404C4.35986 63.9201 0.0800781 59.6412 0.0800781 54.3598Z" stroke="none"/>
</svg>
