<svg viewBox="0 0 64 64" xmlns="http://www.w3.org/2000/svg">
<path fill-rule="evenodd" clip-rule="evenodd" d="M16.0249 0.0800781H47.9752C56.7813 0.0800781 63.9201 7.21751 63.9201 16.0249V47.9752C63.9201 56.7813 56.7826 63.9201 47.9752 63.9201H16.0249C7.21883 63.9201 0.0800781 56.7826 0.0800781 47.9752V16.0249C0.0800781 7.21883 7.21751 0.0800781 16.0249 0.0800781ZM6.46414 47.9752C6.46414 53.2563 10.7441 57.5361 16.025 57.5361H47.9753C53.2564 57.5361 57.5361 53.2561 57.5361 47.9752V16.0249C57.5361 10.7438 53.2561 6.46408 47.9753 6.46408H16.025C10.7439 6.46408 6.46414 10.7441 6.46414 16.0249V47.9752ZM16.04 32.0001C16.04 23.1856 23.1856 16.0401 32 16.0401C40.8145 16.0401 47.96 23.1856 47.96 32.0001C47.96 40.8146 40.8145 47.9601 32 47.9601C23.1856 47.9601 16.04 40.8146 16.04 32.0001ZM41.5761 32.0001C41.5761 26.7114 37.2888 22.4241 32.0001 22.4241C26.7114 22.4241 22.4241 26.7114 22.4241 32.0001C22.4241 37.2888 26.7114 41.5761 32.0001 41.5761C37.2888 41.5761 41.5761 37.2888 41.5761 32.0001ZM47.9601 19.2321C46.1972 19.2321 44.7681 17.803 44.7681 16.0401C44.7681 14.2772 46.1972 12.8481 47.9601 12.8481C49.723 12.8481 51.1521 14.2772 51.1521 16.0401C51.1521 17.803 49.723 19.2321 47.9601 19.2321Z" stroke="none"/>
</svg>
