<svg viewBox="0 0 70 70" xmlns="http://www.w3.org/2000/svg">
<path fill-rule="evenodd" clip-rule="evenodd" d="M70 35V40.2529C70 47.0143 64.5082 52.5 57.75 52.5C53.5323 52.5 49.8132 50.3742 47.6097 47.1345C44.426 50.442 39.9534 52.5 35 52.5C25.335 52.5 17.5 44.665 17.5 35C17.5 25.335 25.335 17.5 35 17.5C44.665 17.5 52.5 25.335 52.5 35V40.2638C52.5 43.1591 54.8461 45.5 57.75 45.5C60.6439 45.5 63 43.1465 63 40.2529V35C63 19.536 50.464 7 35 7C19.536 7 7 19.536 7 35C7 50.464 19.536 63 35 63C36.933 63 38.5 64.567 38.5 66.5C38.5 68.433 36.933 70 35 70C15.67 70 0 54.33 0 35C0 15.67 15.67 0 35 0C54.33 0 70 15.67 70 35ZM45.5 35C45.5 29.201 40.7989 24.5 35 24.5C29.201 24.5 24.5 29.201 24.5 35C24.5 40.799 29.201 45.5 35 45.5C40.7989 45.5 45.5 40.799 45.5 35Z" stroke="none" />
</svg>
