<svg viewBox="0 0 14 14" xmlns="http://www.w3.org/2000/svg">
<path fill-rule="evenodd" clip-rule="evenodd" d="M5.62889 4.59241L6.33548 3.88644C6.59757 3.62458 6.59699 3.2026 6.33613 2.94197L3.74257 0.350697C3.34894 -0.0425832 2.71647 -0.0394025 2.32441 0.352314L0.910048 1.76543C0.0012869 2.67339 -0.217389 4.31844 0.427114 5.43428C0.427114 5.43428 1.20008 7.23754 3.99454 10.0295C6.78899 12.8215 8.56089 13.5664 8.56089 13.5664C9.66711 14.2278 11.3213 13.9883 12.2325 13.0779L13.6469 11.6648C14.0415 11.2706 14.0397 10.6387 13.6485 10.2479L11.0549 7.65663C10.7933 7.39526 10.3709 7.39629 10.1096 7.65728L9.40305 8.36324C9.0123 8.75365 8.38024 8.75512 7.98564 8.36087L5.63127 6.00857C5.2392 5.61685 5.23849 4.98247 5.62889 4.59241ZM1.58285 4.76793C1.28923 4.15553 1.37091 3.19042 1.8536 2.70815L3.03431 1.52848L4.92139 3.4139L4.68537 3.64972C3.7731 4.56118 3.77533 6.03969 4.68774 6.95129L7.04212 9.3036C7.95676 10.2174 9.43369 10.2181 10.3466 9.30597L10.5826 9.07015L12.4697 10.9556L11.289 12.1352C10.7977 12.6261 9.80462 12.7145 9.24609 12.4224C9.24609 12.4224 8.38344 11.9502 8.07305 11.7405C7.15366 11.1195 6.10107 10.2488 4.93809 9.08684C3.77492 7.9247 2.89804 6.86649 2.2675 5.93696C2.05416 5.62247 1.58285 4.76793 1.58285 4.76793Z" stroke="none"/>
</svg>
