<svg viewBox="0 0 70 78" xmlns="http://www.w3.org/2000/svg">
<path fill-rule="evenodd" clip-rule="evenodd" d="M10.5 74C10.5 76.7954 13.6155 78.4628 15.9415 76.9122C15.9415 76.9122 26.3176 69.9375 26.9273 69.5636C29.5519 70.1835 32.2561 70.5 35 70.5C54.33 70.5 70 54.83 70 35.5C70 16.17 54.33 0.5 35 0.5C15.67 0.5 0 16.17 0 35.5C0 45.035 3.83795 53.9583 10.4824 60.478C10.4824 61.5871 10.5 74 10.5 74ZM7.00015 35.5C7.00015 20.036 19.5362 7.49998 35.0002 7.49998C50.4641 7.49998 63.0002 20.036 63.0002 35.5C63.0002 50.9639 50.4641 63.5 35.0002 63.5C32.3578 63.5 29.7678 63.1349 27.2806 62.4233C26.293 62.1407 25.2311 62.3062 24.3763 62.876L17.5002 67.5588V58.9791C17.5002 57.9835 17.0762 57.0351 16.3344 56.3711C10.4328 51.0891 7.00015 43.5754 7.00015 35.5ZM22.6589 24.3372L25.0199 21.9768C25.6629 21.334 26.7192 21.3477 27.3496 21.978L32.0578 26.6851C32.7123 27.3394 32.7085 28.3875 32.0595 29.0363C31.406 29.6897 31.165 30.8953 31.5111 31.7393C31.5111 31.7393 32.0579 33.7338 34.4064 36.0817C36.7549 38.4296 38.7539 38.9803 38.7539 38.9803C39.5895 39.345 40.8111 39.0834 41.4601 38.4346C42.1136 37.7812 43.162 37.7865 43.812 38.4363L48.5202 43.1433C49.1639 43.7868 49.1557 44.8383 48.5214 45.4724L46.1604 47.8328C44.2135 49.7793 40.8052 50.0726 38.6055 48.4414C38.6055 48.4414 35.5155 46.5888 29.6599 40.7347C23.8043 34.8805 22.0468 31.9005 22.0468 31.9005C20.4379 29.6698 20.7159 26.2797 22.6589 24.3372Z" stroke="none"/>
</svg>
